<svg id="Laag_1" data-name="Laag 1" xmlns="http://www.w3.org/2000/svg" viewBox="0 0 1745.63 325.48"><defs><style>.cls-1{fill:#fff;}</style></defs><polygon class="cls-1" points="64.61 156.71 0 322.98 41.56 322.98 88.83 200.65 136.1 322.98 177.67 322.98 113.07 156.71 64.61 156.71"/><polygon class="cls-1" points="64.61 10.57 0 176.83 41.56 176.83 88.83 54.5 136.1 176.83 177.67 176.83 113.07 10.57 64.61 10.57"/><path class="cls-1" d="M315.13,120h58.68l9.08,25.71h28.54L361,2.86H326.15l-50,142.84h30.41Zm28.76-84.73L364.5,93.63H324.3Z" transform="translate(0 0.06)"/><polygon class="cls-1" points="513.67 118.83 453.47 118.83 453.47 86.79 507.55 86.79 507.55 60.26 453.47 60.26 453.47 29.85 512.65 29.85 512.65 2.91 425.31 2.91 425.31 145.77 513.67 145.77 513.67 118.83"/><path class="cls-1" d="M561.63,96.11H583l28.87,49.59h30.41L610.61,91.82a47.11,47.11,0,0,0,20-17,43.43,43.43,0,0,0,7.56-24.6A47.37,47.37,0,0,0,590.79,2.86H533.43V145.7h28.2Zm0-66.93h29a18.07,18.07,0,0,1,13.65,6.08A21,21,0,0,1,610,50.15a21.38,21.38,0,0,1-5.72,15,17.89,17.89,0,0,1-13.67,6.23h-29Z" transform="translate(0 0.06)"/><rect class="cls-1" x="658.77" y="2.92" width="28.16" height="142.85"/><path class="cls-1" d="M750.61,2.86l-50,142.84H731L739.59,120h58.68l9.08,25.71H835.9L785.5,2.86Zm-1.85,90.81,19.59-58.41L789,93.63Z" transform="translate(0 0.06)"/><polygon class="cls-1" points="932.42 118.83 877.93 118.83 877.93 2.91 849.78 2.91 849.78 145.77 932.42 145.77 932.42 118.83"/><path class="cls-1" d="M1093.25,145.7h28.55L1071.43,2.86h-34.9l-50,142.84h30.4L1025.5,120h58.68Zm-58.59-52,19.59-58.44,20.61,58.37Z" transform="translate(0 0.06)"/><path class="cls-1" d="M1198.32,27.34a45,45,0,0,1,22,5.41,37.78,37.78,0,0,1,15.1,15l24.28-14.08a66.54,66.54,0,0,0-25.61-24.58A72.93,72.93,0,0,0,1198.27,0Q1166,0,1145,21.34t-21,52.94q0,31.44,21,52.86t53.26,21.43a72.64,72.64,0,0,0,35.92-9.08,66.72,66.72,0,0,0,25.51-24.59l-24.27-14.1a36.56,36.56,0,0,1-15,14.8,45.38,45.38,0,0,1-22.15,5.41q-20.8,0-33.57-13.06T1152,74.26q0-20.81,12.75-33.87T1198.32,27.34Z" transform="translate(0 0.06)"/><path class="cls-1" d="M1343.43,27.34a44.9,44.9,0,0,1,22,5.41,37.78,37.78,0,0,1,15.1,15l24.28-14.08A66.47,66.47,0,0,0,1379.2,9.09,72.86,72.86,0,0,0,1343.43,0q-32.25,0-53.27,21.33t-21,52.94q0,31.44,21,52.86t53.27,21.43a72.64,72.64,0,0,0,35.92-9.08,66.7,66.7,0,0,0,25.5-24.59l-24.28-14.09a36.56,36.56,0,0,1-15,14.8,45.35,45.35,0,0,1-22.14,5.41q-20.82,0-33.58-13.06t-12.76-33.69q0-20.81,12.75-33.87T1343.43,27.34Z" transform="translate(0 0.06)"/><polygon class="cls-1" points="1450.35 86.79 1504.42 86.79 1504.42 60.26 1450.35 60.26 1450.35 29.85 1509.53 29.85 1509.53 2.91 1422.19 2.91 1422.19 145.77 1510.55 145.77 1510.55 118.83 1450.35 118.83 1450.35 86.79"/><path class="cls-1" d="M1625.74,85.26a28,28,0,0,0-6.22-7.15,71.56,71.56,0,0,0-7.24-5.51,58,58,0,0,0-9-4.39c-3.88-1.56-6.93-2.72-9.18-3.47s-5.55-1.79-9.9-3.15q-15.92-4.91-21.53-9.08a13,13,0,0,1-5.61-10.92,12.55,12.55,0,0,1,5-10.31q5-4,13.77-4,18.78,0,27.35,18.37L1626.85,32a56.74,56.74,0,0,0-20.51-23.57q-13.15-8.48-30.51-8.47-19.38,0-33.16,11.53t-13.78,30.91a39.88,39.88,0,0,0,3.47,17.15,31.2,31.2,0,0,0,10.1,12.13,69.5,69.5,0,0,0,13.27,7.65A149.47,149.47,0,0,0,1572,85q17.34,4.89,24.07,9.07t6.74,11.73a13.15,13.15,0,0,1-5.51,10.82q-5.52,4.29-17.35,4.29-24.48,0-32.85-21.84L1523,113.26a50.73,50.73,0,0,0,20.4,25.82q14.49,9.48,35.72,9.49,23.06,0,37.44-11.63T1631,105.51a40.16,40.16,0,0,0-1.53-11.33A39.47,39.47,0,0,0,1625.74,85.26Z" transform="translate(0 0.06)"/><path class="cls-1" d="M1744.11,94.17a40.33,40.33,0,0,0-3.68-8.91,27.84,27.84,0,0,0-6.23-7.15A74.5,74.5,0,0,0,1727,72.6a58,58,0,0,0-9-4.39q-5.82-2.34-9.19-3.47t-9.89-3.15q-15.93-4.91-21.53-9.08a13,13,0,0,1-5.61-10.92,12.55,12.55,0,0,1,5-10.31q5-4,13.78-4,18.77,0,27.34,18.37L1741.55,32A56.88,56.88,0,0,0,1721,8.41q-13.17-8.48-30.51-8.47-19.38,0-33.16,11.53t-13.78,30.91a39.88,39.88,0,0,0,3.47,17.15,31.2,31.2,0,0,0,10.1,12.13,69.5,69.5,0,0,0,13.27,7.65A150.06,150.06,0,0,0,1686.65,85q17.36,4.89,24.08,9.07t6.73,11.73a13.14,13.14,0,0,1-5.5,10.82q-5.52,4.29-17.35,4.29-24.48,0-32.86-21.84l-24.07,14.15a50.8,50.8,0,0,0,20.41,25.82q14.49,9.48,35.71,9.49,23.07,0,37.45-11.63t14.38-31.43A39.91,39.91,0,0,0,1744.11,94.17Z" transform="translate(0 0.06)"/><polygon class="cls-1" points="278.38 206.71 316.74 206.71 316.74 322.63 344.91 322.63 344.91 206.71 383.48 206.71 383.48 179.78 278.38 179.78 278.38 206.71"/><path class="cls-1" d="M496.33,251.65a43.52,43.52,0,0,0,7.55-24.6,47.37,47.37,0,0,0-47.41-47.33H399.19V322.56h28.16V273h21.33l28.87,49.58H508l-31.63-53.87A47.27,47.27,0,0,0,496.33,251.65ZM470,242.05a17.92,17.92,0,0,1-13.67,6.21h-29V206h29A18.09,18.09,0,0,1,470,212.16a21.07,21.07,0,0,1,5.71,14.89A21.41,21.41,0,0,1,470,242.05Z" transform="translate(0 0.06)"/><path class="cls-1" d="M561.64,179.71l-50,142.86H542l8.57-25.71h58.68l9.14,25.71h28.5l-50.4-142.86Zm-1.85,90.82,19.64-58.37L600,270.53Z" transform="translate(0 0.06)"/><rect class="cls-1" x="660.81" y="179.77" width="28.16" height="142.86"/><polygon class="cls-1" points="798.14 266.8 736.89 179.78 715.5 179.78 715.5 322.63 743.66 322.63 743.66 235.29 804.87 322.63 826.3 322.63 826.3 179.78 798.14 179.78 798.14 266.8"/><rect class="cls-1" x="852.83" y="179.77" width="28.16" height="142.86"/><polygon class="cls-1" points="990.16 266.8 928.93 179.78 907.52 179.78 907.52 322.63 935.68 322.63 935.68 235.29 996.9 322.63 1018.33 322.63 1018.33 179.78 990.16 179.78 990.16 266.8"/><path class="cls-1" d="M1113.43,270.73h43.27a36.07,36.07,0,0,1-14.59,19.9q-10.71,7.25-27,7.24-22,0-35.41-13.16t-13.37-33.37q0-20.4,13.17-33.78t33.56-13.36a47.94,47.94,0,0,1,23,5.52A38,38,0,0,1,1151.47,224l24-13.87a67.35,67.35,0,0,0-25.71-24.18,74.67,74.67,0,0,0-36.53-9.09q-31.83,0-53.36,21.64t-21.53,52.85q0,31,21.74,52.55t54.79,21.53q31,0,50.61-19T1185,256.83v-11h-71.6Z" transform="translate(0 0.06)"/></svg>